# xmcd
#
# Track frame offsets:
#	150
#	14580
#	34957
#	51421
#	67256
#	84085
#	102252
#	119187
#	132879
#	152023
#	168840
#	187165
#	202177
#	216336
#	232756
#	247713
#
# Disc length: 3561 seconds
#
# Revision: 1
# Processed by: cddbd v1.5PL3 Copyright (c) Steve Scherf et al.
# Submitted via: CDex 1.50Beta5
#
DISCID=e60de710
DTITLE=石原裕次郎 - おもいで〜石原裕次郎ヒット曲集
DYEAR=1900
DGENRE=World
TTITLE0=思い出さがし
TTITLE1=嘆きのメロディー
TTITLE2=昭和たずねびと
TTITLE3=思い出ホテル
TTITLE4=時間よお前は…
TTITLE5=おもいで
TTITLE6=夜霧も今夜もありがとう
TTITLE7=クロスオーバー・ラブ
TTITLE8=思い出はアカシア
TTITLE9=ロンリーナイト・ロンリーウェイ
TTITLE10=恋の町札幌
TTITLE11=夜霧の慕情
TTITLE12=港町涙町別れ町
TTITLE13=ブランデーグラス
TTITLE14=赤いハンカチ
TTITLE15=北の旅人
EXTD=
EXTT0=
EXTT1=
EXTT2=
EXTT3=
EXTT4=
EXTT5=
EXTT6=
EXTT7=
EXTT8=
EXTT9=
EXTT10=
EXTT11=
EXTT12=
EXTT13=
EXTT14=
EXTT15=
PLAYORDER=
